<svg xmlns="http://www.w3.org/2000/svg" xmlns:xlink="http://www.w3.org/1999/xlink" width="1080" zoomAndPan="magnify" viewBox="0 0 810 1012.49997" height="1350" preserveAspectRatio="xMidYMid meet" version="1.0"><defs><clipPath id="d5be3f416f"><path d="M 0.199219 0 L 809.800781 0 L 809.800781 1012 L 0.199219 1012 Z M 0.199219 0 " clip-rule="nonzero"/></clipPath></defs><g clip-path="url(#d5be3f416f)"><path fill="#ffffff" d="M 0.199219 0 L 809.800781 0 L 809.800781 1012 L 0.199219 1012 Z M 0.199219 0 " fill-opacity="1" fill-rule="nonzero"/><path fill="#ffffff" d="M 0.199219 0 L 809.800781 0 L 809.800781 1012 L 0.199219 1012 Z M 0.199219 0 " fill-opacity="1" fill-rule="nonzero"/></g><path fill="#f8942a" d="M 144.46875 428.152344 C 144.203125 428.261719 143.835938 428.523438 143.660156 428.738281 C 143.484375 428.949219 142.996094 429.125 142.570312 429.125 C 142.066406 429.125 141.613281 429.324219 141.25 429.710938 C 140.949219 430.035156 140.402344 430.363281 140.035156 430.445312 C 139.667969 430.523438 139.179688 430.800781 138.949219 431.054688 C 138.71875 431.3125 138.421875 431.523438 138.292969 431.523438 C 138.011719 431.523438 134.042969 435.507812 134.042969 435.789062 C 134.042969 435.898438 133.773438 436.351562 133.445312 436.800781 C 133.113281 437.246094 132.84375 437.792969 132.84375 438.011719 C 132.84375 438.234375 132.605469 438.714844 132.316406 439.085938 C 131.988281 439.503906 131.726562 440.273438 131.625 441.125 C 131.519531 442.046875 131.296875 442.664062 130.953125 443.007812 L 130.441406 443.519531 L 130.503906 509.058594 L 130.566406 574.601562 L 131.105469 575.550781 C 131.402344 576.074219 131.644531 576.890625 131.644531 577.363281 C 131.644531 577.90625 131.867188 578.527344 132.246094 579.039062 C 132.574219 579.484375 132.84375 580.015625 132.84375 580.214844 C 132.84375 580.640625 133.027344 580.847656 135.816406 583.636719 C 137.234375 585.0625 138.140625 585.773438 138.667969 585.890625 C 139.09375 585.984375 139.578125 586.257812 139.746094 586.496094 C 139.917969 586.738281 140.457031 587 140.945312 587.078125 C 141.4375 587.160156 142.285156 587.433594 142.824219 587.6875 C 143.769531 588.132812 144.472656 588.152344 159.015625 588.152344 C 173.785156 588.148438 174.242188 588.136719 174.941406 587.671875 C 175.335938 587.410156 176.007812 587.195312 176.433594 587.195312 C 177.289062 587.195312 179.136719 585.714844 179.136719 585.03125 C 179.136719 584.820312 179.410156 584.28125 179.738281 583.835938 C 180.304688 583.070312 180.339844 582.851562 180.339844 579.953125 C 180.339844 577.160156 180.292969 576.835938 179.839844 576.382812 C 179.566406 576.105469 179.230469 575.5625 179.09375 575.175781 C 178.957031 574.785156 178.535156 574.304688 178.152344 574.109375 C 177.773438 573.910156 177.460938 573.65625 177.460938 573.539062 C 177.460938 572.894531 175.53125 572.800781 161.792969 572.800781 L 147.632812 572.800781 L 146.328125 571.421875 C 145.609375 570.664062 144.90625 569.773438 144.765625 569.445312 C 144.484375 568.785156 144.382812 507.578125 144.597656 468.300781 L 144.71875 446.433594 L 145.257812 445.859375 C 145.554688 445.542969 145.800781 445.074219 145.800781 444.820312 C 145.808594 443.914062 146.203125 443.59375 148.828125 442.347656 C 149.375 442.089844 149.871094 441.730469 149.929688 441.554688 C 150.015625 441.292969 157.324219 441.226562 192.210938 441.171875 C 233.84375 441.109375 234.394531 441.117188 234.890625 441.582031 C 235.167969 441.839844 235.875 442.128906 236.46875 442.222656 C 237.261719 442.34375 237.757812 442.613281 238.347656 443.234375 C 239.117188 444.039062 240.09375 445.390625 240.710938 446.496094 C 241.464844 447.839844 241.578125 455.914062 241.550781 507.679688 C 241.527344 557.144531 241.457031 565.167969 241.019531 568.429688 C 240.804688 570.035156 240.132812 571.105469 238.855469 571.882812 C 238.492188 572.101562 238.125 572.398438 238.039062 572.542969 C 237.925781 572.722656 233.886719 572.800781 224.714844 572.800781 C 217.464844 572.800781 211.300781 572.898438 210.996094 573.019531 C 209.96875 573.417969 207.683594 575.765625 207.683594 576.421875 C 207.683594 576.753906 207.414062 577.390625 207.082031 577.839844 C 206.753906 578.285156 206.484375 578.851562 206.484375 579.097656 C 206.484375 579.339844 206.753906 580.046875 207.082031 580.667969 C 207.414062 581.285156 207.683594 582.117188 207.6875 582.515625 C 207.691406 583.160156 208.691406 585.011719 209.371094 585.636719 C 209.519531 585.765625 209.871094 586.101562 210.160156 586.378906 C 210.445312 586.652344 211.097656 586.945312 211.609375 587.027344 C 212.121094 587.105469 212.753906 587.367188 213.015625 587.601562 C 213.457031 588.003906 214.402344 588.039062 227.046875 588.097656 C 240.164062 588.164062 240.640625 588.148438 241.59375 587.6875 C 242.136719 587.425781 243.214844 587.136719 243.984375 587.046875 C 244.8125 586.949219 245.550781 586.714844 245.785156 586.472656 C 246.003906 586.246094 246.480469 585.988281 246.851562 585.902344 C 247.488281 585.75 249.046875 584.441406 250.703125 582.671875 C 251.117188 582.226562 251.753906 581.582031 252.117188 581.238281 C 252.507812 580.867188 252.777344 580.355469 252.777344 579.988281 C 252.777344 579.628906 253.035156 579.121094 253.375 578.796875 C 253.910156 578.296875 253.976562 578.042969 253.976562 576.46875 C 253.976562 575.441406 254.125 574.34375 254.339844 573.839844 C 254.65625 573.074219 254.699219 565.515625 254.703125 509.363281 C 254.703125 453.058594 254.660156 445.652344 254.339844 444.882812 C 254.113281 444.339844 253.976562 443.253906 253.976562 442.011719 C 253.976562 440.253906 253.902344 439.910156 253.375 439.199219 C 253.046875 438.75 252.773438 438.164062 252.773438 437.890625 C 252.761719 436.796875 249.277344 432.3125 247.871094 431.589844 C 247.46875 431.378906 247 431.011719 246.828125 430.765625 C 246.652344 430.523438 246.398438 430.324219 246.261719 430.324219 C 246.125 430.324219 245.6875 430.054688 245.296875 429.722656 C 244.90625 429.394531 244.285156 429.125 243.914062 429.125 C 243.546875 429.125 242.9375 428.878906 242.5625 428.582031 L 241.875 428.042969 L 193.417969 428 C 166.765625 427.972656 144.738281 428.042969 144.46875 428.152344 M 155.679688 451.957031 C 155.457031 452.179688 155.390625 464.730469 155.390625 506.976562 C 155.390625 556.050781 155.429688 561.742188 155.761719 562.015625 C 156.050781 562.257812 158.464844 562.328125 166.605469 562.347656 C 175.578125 562.363281 177.136719 562.316406 177.515625 562.007812 C 177.929688 561.667969 177.816406 561.5 175.566406 559.128906 C 172.015625 555.390625 171.941406 555.304688 171.941406 554.871094 C 171.941406 554.648438 171.722656 554.25 171.457031 553.980469 C 170.625 553.144531 169.859375 551.808594 169.6875 550.894531 C 169.597656 550.410156 169.296875 549.804688 169.027344 549.550781 C 168.707031 549.253906 168.484375 548.675781 168.40625 547.933594 C 168.339844 547.28125 168.085938 546.558594 167.828125 546.277344 C 167.519531 545.933594 167.328125 545.253906 167.226562 544.117188 C 167.144531 543.207031 166.90625 542.136719 166.691406 541.738281 C 166.109375 540.652344 166.117188 528.941406 166.703125 527.707031 C 166.921875 527.246094 167.179688 526.003906 167.273438 524.949219 C 167.394531 523.597656 167.613281 522.738281 168.015625 522.050781 C 168.386719 521.414062 168.585938 520.691406 168.585938 519.988281 C 168.585938 519.230469 168.722656 518.785156 169.039062 518.496094 C 169.292969 518.265625 169.570312 517.6875 169.660156 517.207031 C 169.75 516.726562 170.085938 516.027344 170.402344 515.648438 C 170.722656 515.269531 170.984375 514.792969 170.984375 514.589844 C 170.984375 514.246094 171.613281 513.328125 172.59375 512.242188 C 172.828125 511.980469 173.128906 511.59375 173.261719 511.382812 C 174.207031 509.871094 174.742188 509.191406 175.957031 507.957031 C 176.71875 507.1875 177.636719 506.398438 178 506.210938 C 178.363281 506.023438 178.660156 505.769531 178.660156 505.648438 C 178.660156 505.53125 178.847656 505.371094 179.078125 505.296875 C 179.308594 505.21875 180.035156 504.664062 180.6875 504.0625 C 181.339844 503.457031 182.175781 502.808594 182.546875 502.617188 C 182.914062 502.425781 183.214844 502.171875 183.214844 502.054688 C 183.214844 501.9375 183.542969 501.769531 183.945312 501.679688 C 184.347656 501.59375 184.957031 501.257812 185.300781 500.941406 C 185.644531 500.625 186.175781 500.363281 186.480469 500.363281 C 186.785156 500.363281 187.234375 500.148438 187.480469 499.886719 C 187.753906 499.589844 188.382812 499.351562 189.109375 499.261719 C 189.761719 499.179688 190.609375 498.890625 191 498.617188 C 191.511719 498.257812 192.257812 498.074219 193.6875 497.960938 C 194.773438 497.875 195.816406 497.679688 196 497.523438 C 197.054688 496.652344 207.949219 496.488281 209.535156 497.324219 C 209.960938 497.546875 210.984375 497.796875 211.8125 497.875 C 212.734375 497.964844 213.707031 498.242188 214.320312 498.59375 C 214.871094 498.90625 215.582031 499.164062 215.898438 499.164062 C 216.214844 499.164062 216.726562 499.433594 217.035156 499.761719 C 217.363281 500.109375 217.867188 500.363281 218.238281 500.363281 C 218.605469 500.363281 219.109375 500.617188 219.4375 500.964844 C 219.746094 501.292969 220.132812 501.5625 220.300781 501.5625 C 220.464844 501.5625 220.75 501.710938 220.929688 501.890625 C 221.109375 502.070312 221.578125 502.386719 221.964844 502.585938 C 222.355469 502.789062 223.175781 503.453125 223.789062 504.058594 C 224.46875 504.730469 225.121094 505.160156 225.460938 505.160156 C 225.765625 505.160156 226.269531 505.402344 226.578125 505.699219 C 228.28125 507.335938 228.636719 507.773438 229.054688 508.726562 C 229.441406 509.605469 229.574219 509.726562 229.871094 509.476562 C 230.183594 509.214844 230.230469 505.601562 230.230469 480.570312 C 230.230469 454.703125 230.191406 451.949219 229.851562 451.816406 C 229.640625 451.738281 212.933594 451.671875 192.71875 451.671875 C 164.453125 451.671875 155.902344 451.738281 155.679688 451.957031 M 176.019531 467.273438 C 175.558594 467.363281 174.855469 467.609375 174.460938 467.828125 C 174.066406 468.042969 173.515625 468.21875 173.238281 468.21875 C 172.105469 468.222656 171.265625 468.726562 170.902344 469.617188 C 170.703125 470.101562 170.320312 470.6875 170.042969 470.917969 C 169.488281 471.378906 169.425781 472.25 169.699219 475.484375 L 169.851562 477.304688 L 172.335938 479.015625 L 189.144531 479.015625 L 190.605469 478.261719 C 191.410156 477.847656 192.359375 477.203125 192.722656 476.824219 C 193.304688 476.214844 193.386719 475.921875 193.484375 474.113281 C 193.675781 470.441406 193.425781 469.828125 190.90625 467.804688 L 190.078125 467.140625 L 183.46875 467.128906 C 179.835938 467.121094 176.480469 467.1875 176.019531 467.273438 M 354.839844 470.984375 C 352.671875 472.097656 351.625 473.160156 351.308594 474.570312 C 351.191406 475.097656 350.917969 475.726562 350.703125 475.960938 C 350.464844 476.222656 350.269531 476.96875 350.207031 477.84375 C 350.121094 479.019531 350.191406 479.417969 350.570312 479.933594 C 350.828125 480.285156 351.113281 480.933594 351.199219 481.371094 C 351.363281 482.210938 352.246094 483.226562 353.714844 484.265625 C 354.5625 484.867188 354.730469 484.890625 357.835938 484.890625 C 360.980469 484.890625 361.101562 484.871094 362.003906 484.234375 C 363.199219 483.390625 364.554688 481.953125 364.554688 481.53125 C 364.554688 481.351562 364.78125 480.816406 365.058594 480.34375 C 365.476562 479.636719 365.550781 479.191406 365.472656 477.828125 C 365.410156 476.683594 365.25 476.027344 364.957031 475.703125 C 364.722656 475.449219 364.472656 474.863281 364.398438 474.40625 C 364.261719 473.574219 363.546875 472.703125 361.929688 471.402344 C 361.148438 470.777344 360.953125 470.738281 358.332031 470.675781 C 356.207031 470.628906 355.390625 470.699219 354.839844 470.984375 M 558.320312 472.0625 C 557.945312 472.289062 557.914062 474.660156 557.890625 505.496094 C 557.875 530.160156 557.941406 538.84375 558.148438 539.292969 C 558.515625 540.101562 558.941406 540.183594 563.355469 540.28125 C 565.425781 540.328125 567.496094 540.4375 567.957031 540.527344 C 568.539062 540.640625 568.945312 540.582031 569.277344 540.335938 C 569.742188 539.988281 569.757812 539.683594 569.785156 529.511719 C 569.800781 522.878906 569.902344 518.953125 570.050781 518.800781 C 570.605469 518.246094 572.859375 520.433594 575.15625 523.761719 C 575.484375 524.238281 576.023438 524.929688 576.355469 525.296875 C 578.148438 527.300781 578.910156 528.304688 579.265625 529.125 C 579.484375 529.625 579.835938 530.101562 580.046875 530.183594 C 580.257812 530.265625 580.429688 530.492188 580.429688 530.683594 C 580.429688 530.878906 580.621094 531.179688 580.855469 531.351562 C 581.089844 531.523438 581.484375 531.988281 581.738281 532.386719 C 581.992188 532.78125 582.339844 533.246094 582.515625 533.421875 C 582.6875 533.597656 582.828125 533.890625 582.828125 534.074219 C 582.828125 534.261719 583.101562 534.589844 583.429688 534.804688 C 583.757812 535.023438 584.03125 535.328125 584.03125 535.488281 C 584.03125 535.648438 584.300781 536.011719 584.628906 536.296875 C 584.957031 536.585938 585.230469 536.972656 585.230469 537.160156 C 585.230469 537.808594 587 539.386719 588.160156 539.769531 C 589.144531 540.097656 590.007812 540.117188 594.636719 539.921875 C 597.574219 539.796875 600.269531 539.757812 600.621094 539.832031 C 601 539.914062 601.570312 539.8125 602.007812 539.585938 L 602.75 539.203125 L 601.660156 537.832031 C 601.0625 537.078125 600.128906 535.960938 599.582031 535.351562 C 599.039062 534.738281 598.460938 533.929688 598.304688 533.550781 C 598.144531 533.171875 597.835938 532.714844 597.617188 532.535156 C 597.398438 532.355469 597.222656 532.09375 597.222656 531.960938 C 597.222656 531.824219 596.65625 531.148438 595.960938 530.457031 C 594.488281 528.984375 593.757812 528.035156 593.519531 527.289062 C 593.429688 526.992188 593.273438 526.75 593.179688 526.75 C 592.878906 526.75 589.847656 522.984375 588.945312 521.492188 C 588.816406 521.273438 588.191406 520.558594 587.566406 519.90625 C 586.9375 519.25 586.363281 518.527344 586.289062 518.292969 C 586.214844 518.0625 586.058594 517.875 585.9375 517.875 C 585.820312 517.875 585.542969 517.523438 585.324219 517.09375 C 584.914062 516.289062 584.625 515.925781 583.480469 514.75 C 582.601562 513.847656 582.773438 513.179688 584.304688 511.558594 C 584.949219 510.875 586.472656 509.261719 587.691406 507.96875 C 589.382812 506.179688 591.082031 504.390625 592.785156 502.613281 C 594.367188 500.957031 595.769531 499.40625 595.902344 499.164062 C 596.179688 498.652344 597.597656 497.015625 599.914062 494.535156 C 600.800781 493.585938 601.53125 492.671875 601.535156 492.507812 C 601.539062 492.179688 600.652344 492.152344 591.625 492.207031 C 588.742188 492.226562 586.230469 492.300781 586.039062 492.371094 C 585.847656 492.445312 585.535156 492.804688 585.347656 493.167969 C 585.160156 493.53125 584.21875 494.628906 583.257812 495.613281 C 581.039062 497.882812 579.230469 499.9375 579.230469 500.195312 C 579.230469 500.425781 578.15625 501.910156 577.4375 502.679688 C 577.171875 502.960938 576.167969 504.007812 575.210938 505 C 573.515625 506.757812 571.238281 509.449219 570.683594 510.351562 C 570.464844 510.703125 570.339844 510.734375 570.105469 510.507812 C 569.867188 510.28125 569.796875 506.175781 569.78125 491.390625 C 569.761719 476.300781 569.695312 472.5 569.445312 472.25 C 569.050781 471.855469 558.949219 471.683594 558.320312 472.0625 M 411.613281 474.164062 C 410.867188 474.789062 410.835938 474.875 411.109375 475.542969 C 411.480469 476.460938 411.605469 537.589844 411.234375 538.453125 C 411.039062 538.917969 411.117188 539.121094 411.734375 539.738281 C 412.347656 540.351562 412.542969 540.429688 412.949219 540.210938 C 413.285156 540.03125 419.183594 539.949219 432.074219 539.949219 C 446.683594 539.945312 450.847656 539.878906 451.347656 539.640625 L 451.984375 539.332031 L 451.894531 533.699219 C 451.847656 530.601562 451.757812 528.015625 451.695312 527.949219 C 451.636719 527.882812 445.488281 527.773438 438.03125 527.707031 C 424.832031 527.589844 424.472656 527.574219 424.125 527.109375 C 423.878906 526.777344 423.820312 526.371094 423.933594 525.789062 C 424.023438 525.328125 424.140625 513.648438 424.199219 499.835938 L 424.300781 474.722656 L 423.699219 474.328125 C 423.203125 474.003906 422.269531 473.921875 418.351562 473.871094 C 415.742188 473.832031 413.335938 473.734375 413.007812 473.652344 C 412.558594 473.539062 412.207031 473.667969 411.613281 474.164062 M 295.171875 474.1875 C 294.261719 474.453125 294.273438 473.996094 294.273438 507.078125 C 294.273438 532.339844 294.335938 539.214844 294.574219 539.539062 C 294.847656 539.914062 295.8125 539.957031 305.546875 540.03125 C 311.417969 540.078125 317.410156 540.027344 318.859375 539.921875 C 320.3125 539.816406 322.902344 539.667969 324.617188 539.59375 C 327.222656 539.484375 327.839844 539.382812 328.382812 538.980469 C 328.742188 538.71875 329.300781 538.5 329.628906 538.5 C 330.382812 538.5 331.386719 538.121094 331.847656 537.660156 C 332.042969 537.464844 332.410156 537.300781 332.65625 537.300781 C 333.21875 537.300781 334.332031 536.808594 334.332031 536.5625 C 334.332031 536.457031 334.574219 536.296875 334.867188 536.203125 C 335.164062 536.109375 336.554688 534.890625 337.957031 533.488281 C 339.765625 531.683594 340.554688 530.71875 340.675781 530.167969 C 340.769531 529.738281 341.015625 529.296875 341.222656 529.179688 C 341.460938 529.046875 341.675781 528.410156 341.804688 527.453125 C 341.921875 526.613281 342.195312 525.738281 342.429688 525.480469 C 342.773438 525.097656 342.859375 524.417969 342.929688 521.421875 C 343.015625 518.046875 342.988281 517.78125 342.503906 517.128906 C 342.222656 516.746094 341.898438 515.945312 341.789062 515.347656 C 341.675781 514.746094 341.421875 514.074219 341.222656 513.847656 C 341.027344 513.621094 340.792969 513.203125 340.707031 512.921875 C 340.523438 512.316406 337.824219 509.492188 336.820312 508.847656 C 336.441406 508.605469 335.992188 508.21875 335.824219 507.992188 C 335.652344 507.765625 335.144531 507.507812 334.691406 507.421875 C 334.238281 507.339844 333.742188 507.121094 333.589844 506.9375 C 333.441406 506.753906 332.894531 506.492188 332.382812 506.351562 C 331.871094 506.214844 331.453125 506.011719 331.453125 505.902344 C 331.453125 505.648438 333.609375 503.960938 333.9375 503.960938 C 334.070312 503.960938 335.070312 503.027344 336.15625 501.886719 C 337.546875 500.429688 338.171875 499.578125 338.277344 499.011719 C 338.359375 498.570312 338.625 498.105469 338.859375 497.980469 C 339.222656 497.785156 339.320312 497.304688 339.449219 495.015625 C 339.535156 493.515625 339.722656 491.945312 339.867188 491.53125 C 340.144531 490.738281 340.089844 489.582031 339.609375 486.21875 C 339.394531 484.707031 339.171875 484.011719 338.746094 483.5 C 338.425781 483.125 338.167969 482.585938 338.167969 482.304688 C 338.167969 481.753906 337.886719 481.410156 335.652344 479.222656 C 334.863281 478.449219 334.085938 477.816406 333.921875 477.816406 C 333.761719 477.816406 333.515625 477.609375 333.382812 477.355469 C 333.246094 477.101562 332.804688 476.824219 332.402344 476.734375 C 332 476.644531 331.460938 476.351562 331.207031 476.078125 C 330.851562 475.695312 330.332031 475.546875 328.960938 475.433594 C 327.699219 475.332031 327.027344 475.15625 326.675781 474.835938 C 326.242188 474.441406 325.570312 474.355469 321.675781 474.179688 C 317.46875 473.988281 295.832031 473.992188 295.171875 474.1875 M 388.539062 479.179688 C 388.210938 479.234375 387.417969 479.449219 386.78125 479.652344 C 386.140625 479.859375 384.1875 480.097656 382.40625 480.191406 C 380.636719 480.28125 379.082031 480.460938 378.953125 480.589844 C 378.820312 480.722656 378.671875 483.066406 378.617188 485.945312 C 378.488281 492.445312 378.773438 492.027344 374.277344 492.203125 C 372.097656 492.285156 370.953125 492.429688 370.742188 492.640625 C 370.511719 492.871094 370.429688 494.027344 370.429688 497.132812 C 370.429688 501.308594 370.429688 501.3125 371.050781 501.933594 C 371.644531 502.527344 371.800781 502.554688 374.289062 502.5625 C 375.730469 502.566406 377.25 502.695312 377.671875 502.847656 L 378.4375 503.121094 L 378.542969 517.589844 C 378.648438 531.917969 378.65625 532.058594 379.15625 532.59375 C 379.4375 532.890625 379.667969 533.398438 379.667969 533.71875 C 379.671875 534.042969 379.828125 534.574219 380.019531 534.902344 C 380.246094 535.296875 380.460938 535.699219 380.667969 536.101562 C 381.085938 536.933594 382.65625 538.5 383.066406 538.5 C 383.257812 538.5 383.773438 538.773438 384.222656 539.101562 C 384.667969 539.429688 385.320312 539.699219 385.671875 539.699219 C 386.019531 539.699219 386.507812 539.921875 386.753906 540.195312 C 387.1875 540.671875 387.394531 540.683594 393.808594 540.613281 C 400.03125 540.542969 400.441406 540.511719 400.914062 540.0625 C 401.191406 539.796875 401.601562 539.472656 401.828125 539.339844 C 402.195312 539.128906 402.253906 538.589844 402.304688 534.835938 C 402.355469 531.320312 402.304688 530.523438 402.011719 530.28125 C 401.753906 530.066406 400.5625 530.007812 397.660156 530.066406 L 393.660156 530.148438 L 392.660156 529.214844 C 392.046875 528.640625 391.660156 528.066406 391.660156 527.726562 C 391.660156 527.425781 391.386719 526.855469 391.058594 526.464844 L 390.457031 525.753906 L 390.460938 514.558594 C 390.464844 508.398438 390.558594 503.21875 390.667969 503.042969 C 390.824219 502.796875 392.089844 502.71875 396.289062 502.683594 C 400.367188 502.652344 401.785156 502.566406 402.019531 502.332031 C 402.382812 501.96875 402.601562 496.328125 402.339844 494.21875 C 402.082031 492.171875 402.191406 492.207031 396.421875 492.207031 C 393.410156 492.207031 391.199219 492.109375 390.921875 491.960938 C 390.484375 491.722656 390.457031 491.398438 390.457031 485.742188 C 390.457031 482.460938 390.394531 479.601562 390.3125 479.394531 C 390.171875 479.023438 389.765625 478.976562 388.539062 479.179688 M 307.621094 485.191406 C 307.5625 485.292969 307.472656 488.902344 307.429688 493.214844 C 307.367188 498.933594 307.421875 501.132812 307.625 501.335938 C 307.816406 501.53125 309.269531 501.605469 312.417969 501.578125 C 317.179688 501.542969 317.347656 501.523438 319.511719 500.8125 C 320.265625 500.566406 321.203125 500.363281 321.59375 500.363281 C 322.363281 500.363281 323.414062 499.515625 325.644531 497.085938 C 326.445312 496.214844 326.707031 494.523438 326.507812 491.464844 L 326.359375 489.164062 L 324.9375 487.6875 C 324.042969 486.761719 323.316406 486.210938 322.984375 486.210938 C 322.695312 486.207031 321.917969 485.941406 321.257812 485.617188 C 320.078125 485.039062 319.949219 485.027344 313.894531 485.019531 C 310.507812 485.015625 307.683594 485.09375 307.621094 485.191406 M 625.765625 490.058594 C 624.378906 490.15625 622.929688 490.359375 622.542969 490.511719 C 622.15625 490.664062 620.996094 490.855469 619.960938 490.933594 C 618.523438 491.046875 617.910156 491.210938 617.320312 491.644531 C 616.902344 491.953125 616.257812 492.207031 615.894531 492.207031 C 615.472656 492.207031 615.132812 492.386719 614.972656 492.6875 C 614.832031 492.953125 614.574219 493.167969 614.402344 493.167969 C 614.226562 493.167969 613.882812 493.390625 613.632812 493.667969 C 613.386719 493.941406 612.855469 494.308594 612.457031 494.484375 C 611.730469 494.800781 608.976562 497.277344 608.976562 497.613281 C 608.976562 497.886719 607.378906 500.238281 606.953125 500.589844 C 606.746094 500.761719 606.578125 501.195312 606.578125 501.550781 C 606.578125 501.933594 606.328125 502.429688 605.976562 502.761719 C 605.566406 503.144531 605.378906 503.582031 605.378906 504.132812 C 605.378906 504.578125 605.148438 505.246094 604.867188 505.628906 C 604.511719 506.109375 604.304688 506.867188 604.179688 508.136719 C 604.082031 509.132812 603.882812 510.097656 603.734375 510.273438 C 602.828125 511.363281 602.796875 518.707031 603.6875 520.964844 C 603.957031 521.648438 604.179688 522.75 604.179688 523.414062 C 604.179688 524.578125 604.480469 525.503906 604.957031 525.820312 C 605.085938 525.902344 605.28125 526.476562 605.398438 527.09375 C 605.515625 527.714844 605.828125 528.5 606.09375 528.835938 C 606.359375 529.175781 606.578125 529.644531 606.578125 529.878906 C 606.578125 530.117188 606.847656 530.628906 607.175781 531.023438 C 607.507812 531.414062 607.777344 531.808594 607.777344 531.894531 C 607.777344 532.191406 613.164062 537.300781 613.476562 537.300781 C 613.648438 537.300781 613.847656 537.460938 613.921875 537.652344 C 613.996094 537.84375 614.445312 538.128906 614.921875 538.285156 C 615.402344 538.441406 615.957031 538.777344 616.160156 539.027344 C 616.402344 539.328125 617.011719 539.550781 617.90625 539.671875 C 618.664062 539.777344 619.492188 540.050781 619.75 540.28125 C 620.175781 540.671875 620.898438 540.703125 628.285156 540.691406 C 635.78125 540.675781 636.410156 540.644531 637.117188 540.21875 C 637.535156 539.96875 638.308594 539.699219 638.832031 539.617188 C 639.355469 539.539062 640.074219 539.257812 640.433594 538.992188 C 640.789062 538.730469 641.503906 538.445312 642.015625 538.363281 C 642.664062 538.261719 643.363281 537.851562 644.3125 537.019531 L 645.675781 535.824219 L 645.675781 534.253906 C 645.675781 533.390625 645.445312 531.714844 645.167969 530.53125 C 644.890625 529.351562 644.726562 528.070312 644.800781 527.691406 C 644.90625 527.164062 644.832031 526.9375 644.484375 526.753906 C 643.746094 526.359375 642.910156 526.46875 642.246094 527.046875 C 641.058594 528.085938 639.492188 528.90625 638.703125 528.90625 C 638.214844 528.90625 637.691406 529.109375 637.34375 529.4375 C 636.84375 529.90625 636.410156 529.988281 633.492188 530.152344 C 629.183594 530.394531 623.691406 530.15625 623.238281 529.703125 C 623.054688 529.519531 622.542969 529.21875 622.105469 529.035156 C 620.902344 528.53125 618.644531 526.152344 618.464844 525.195312 C 618.382812 524.753906 618.15625 524.332031 617.957031 524.257812 C 617.757812 524.183594 617.394531 523.644531 617.144531 523.0625 C 616.894531 522.480469 616.574219 521.933594 616.429688 521.84375 C 616.101562 521.640625 616.089844 519.871094 616.417969 519.667969 C 616.550781 519.585938 623.347656 519.5 631.515625 519.476562 C 642.792969 519.441406 646.441406 519.363281 646.660156 519.140625 C 646.902344 518.898438 647.183594 516.421875 647.410156 512.597656 C 647.429688 512.265625 647.316406 510.816406 647.160156 509.375 C 647 507.933594 646.875 506.25 646.875 505.632812 C 646.875 504.886719 646.71875 504.308594 646.414062 503.921875 C 646.160156 503.597656 645.878906 502.9375 645.785156 502.449219 C 645.695312 501.957031 645.421875 501.308594 645.183594 501 C 644.941406 500.695312 644.667969 500.128906 644.574219 499.746094 C 644.480469 499.359375 644.203125 498.785156 643.957031 498.472656 C 643.714844 498.15625 643.515625 497.792969 643.515625 497.664062 C 643.515625 497.535156 642.539062 496.472656 641.34375 495.300781 C 639.832031 493.816406 638.996094 493.167969 638.597656 493.167969 C 638.28125 493.167969 637.9375 493.019531 637.832031 492.84375 C 637.578125 492.417969 636.707031 491.96875 636.132812 491.96875 C 635.878906 491.96875 635.492188 491.769531 635.269531 491.523438 C 634.976562 491.195312 634.398438 491.042969 633.101562 490.945312 C 632.132812 490.871094 631.027344 490.652344 630.652344 490.460938 C 629.640625 489.949219 628.578125 489.863281 625.765625 490.058594 M 677.273438 490.289062 C 676.78125 490.554688 676.019531 490.769531 675.585938 490.769531 C 675.113281 490.769531 674.460938 491.011719 673.976562 491.367188 C 673.53125 491.699219 673.011719 491.96875 672.824219 491.96875 C 672.445312 491.96875 669.679688 494.671875 669.300781 495.410156 C 669.167969 495.667969 668.769531 496.097656 668.414062 496.359375 C 667.878906 496.757812 667.699219 496.789062 667.398438 496.539062 C 667.105469 496.296875 667.0625 495.890625 667.179688 494.472656 C 667.304688 493.023438 667.253906 492.59375 666.910156 492.066406 C 666.503906 491.445312 666.441406 491.433594 664.898438 491.59375 C 664.019531 491.6875 661.824219 491.835938 660.015625 491.925781 C 658.210938 492.015625 656.613281 492.203125 656.472656 492.347656 C 656.070312 492.75 656.132812 539.082031 656.535156 539.914062 C 656.824219 540.515625 656.902344 540.535156 658.390625 540.421875 C 659.246094 540.355469 661.746094 540.3125 663.949219 540.328125 C 667.425781 540.355469 667.976562 540.308594 668.136719 539.96875 C 668.238281 539.757812 668.351562 533.25 668.386719 525.511719 L 668.453125 511.441406 L 669.054688 510.304688 C 669.390625 509.679688 669.660156 508.957031 669.660156 508.699219 C 669.660156 508.140625 670.277344 507.320312 672.132812 505.402344 C 673.183594 504.316406 673.691406 503.960938 674.199219 503.960938 C 674.570312 503.960938 675.179688 503.71875 675.558594 503.421875 C 676.199219 502.917969 676.515625 502.875 680.402344 502.800781 L 684.558594 502.722656 L 684.785156 502.125 C 685.140625 501.191406 685.078125 491.421875 684.710938 490.96875 C 683.925781 489.996094 683.277344 489.808594 680.699219 489.808594 C 678.628906 489.808594 678.007812 489.894531 677.273438 490.289062 M 475.371094 490.402344 C 475.039062 490.585938 473.988281 490.808594 473.027344 490.902344 C 471.863281 491.011719 471.089844 491.21875 470.691406 491.53125 C 470.367188 491.789062 469.695312 492.058594 469.199219 492.132812 C 468.699219 492.210938 468.078125 492.457031 467.816406 492.679688 C 467.550781 492.90625 466.984375 493.226562 466.554688 493.398438 C 466.128906 493.566406 465.777344 493.789062 465.777344 493.890625 C 465.777344 493.996094 465.480469 494.1875 465.117188 494.316406 C 464.570312 494.511719 462.742188 496.214844 459.769531 499.292969 C 459.511719 499.5625 459.300781 499.976562 459.300781 500.21875 C 459.300781 500.457031 459.03125 500.972656 458.699219 501.367188 C 458.371094 501.757812 458.101562 502.269531 458.101562 502.503906 C 458.101562 502.738281 457.832031 503.222656 457.5 503.578125 C 457.0625 504.050781 456.902344 504.492188 456.902344 505.21875 C 456.902344 505.902344 456.742188 506.378906 456.382812 506.761719 C 455.941406 507.230469 455.835938 507.722656 455.683594 510.015625 C 455.585938 511.5 455.382812 513.785156 455.230469 515.085938 C 455.03125 516.828125 455.027344 517.660156 455.222656 518.207031 C 455.371094 518.617188 455.585938 520.117188 455.703125 521.542969 C 455.863281 523.460938 456.046875 524.34375 456.410156 524.929688 C 456.679688 525.367188 456.902344 526.054688 456.902344 526.457031 C 456.902344 526.890625 457.148438 527.484375 457.5 527.902344 C 457.832031 528.296875 458.101562 528.847656 458.101562 529.132812 C 458.101562 529.417969 458.371094 529.898438 458.699219 530.207031 C 459.03125 530.511719 459.300781 531.007812 459.300781 531.308594 C 459.300781 531.652344 459.777344 532.335938 460.558594 533.121094 C 461.25 533.816406 462.171875 534.746094 462.601562 535.183594 C 464.207031 536.820312 464.851562 537.300781 465.417969 537.300781 C 465.753906 537.300781 466.105469 537.503906 466.253906 537.78125 C 466.394531 538.042969 466.804688 538.324219 467.164062 538.410156 C 467.519531 538.496094 468.042969 538.769531 468.320312 539.023438 C 468.597656 539.273438 469.246094 539.539062 469.757812 539.609375 C 470.273438 539.679688 471.113281 539.960938 471.628906 540.234375 C 472.507812 540.703125 472.96875 540.730469 479.824219 540.753906 C 486.921875 540.78125 487.097656 540.769531 487.644531 540.269531 C 488.007812 539.933594 488.683594 539.699219 489.582031 539.59375 C 490.53125 539.476562 491.035156 539.296875 491.1875 539.007812 C 491.3125 538.773438 491.839844 538.457031 492.359375 538.304688 C 492.878906 538.148438 493.4375 537.859375 493.601562 537.660156 C 493.765625 537.464844 494.019531 537.300781 494.167969 537.300781 C 494.449219 537.300781 494.769531 537.023438 497.078125 534.753906 C 499.953125 531.925781 500.796875 530.875 500.796875 530.113281 C 500.796875 529.621094 500.976562 529.28125 501.378906 529.015625 C 501.769531 528.761719 502.011719 528.3125 502.125 527.644531 C 502.21875 527.097656 502.488281 526.375 502.722656 526.039062 C 502.988281 525.660156 503.210938 524.746094 503.3125 523.632812 C 503.402344 522.648438 503.648438 521.460938 503.855469 520.996094 C 504.453125 519.679688 504.578125 512.378906 504.03125 510.917969 C 503.808594 510.324219 503.496094 508.898438 503.335938 507.75 C 503.160156 506.46875 502.890625 505.488281 502.640625 505.210938 C 502.417969 504.964844 502.234375 504.429688 502.234375 504.019531 C 502.234375 503.578125 501.992188 502.988281 501.636719 502.566406 C 501.304688 502.175781 501.035156 501.621094 501.035156 501.335938 C 501.035156 501.054688 500.78125 500.582031 500.46875 500.292969 C 500.160156 500 499.824219 499.492188 499.722656 499.164062 C 499.625 498.835938 499.339844 498.347656 499.089844 498.085938 C 497.214844 496.109375 495.492188 494.605469 495.097656 494.605469 C 494.96875 494.605469 494.457031 494.28125 493.960938 493.886719 C 493.460938 493.492188 492.953125 493.167969 492.824219 493.167969 C 492.699219 493.167969 492.335938 492.964844 492.019531 492.714844 C 491.703125 492.464844 491.039062 492.1875 490.542969 492.097656 C 490.046875 492.003906 489.421875 491.722656 489.148438 491.46875 C 488.773438 491.121094 488.144531 490.976562 486.511719 490.859375 C 485.332031 490.777344 484 490.558594 483.558594 490.378906 C 482.425781 489.917969 476.207031 489.933594 475.371094 490.402344 M 533.179688 490.363281 C 533.113281 490.429688 531.65625 490.605469 529.941406 490.75 C 527.488281 490.957031 526.683594 491.113281 526.171875 491.492188 C 525.8125 491.753906 525.203125 491.96875 524.8125 491.96875 C 524.402344 491.96875 523.796875 492.222656 523.386719 492.566406 C 522.996094 492.898438 522.402344 493.167969 522.066406 493.167969 C 521.707031 493.167969 521.269531 493.40625 521 493.753906 C 520.746094 494.074219 520.234375 494.414062 519.859375 494.507812 C 519.28125 494.65625 517.429688 496.15625 516.539062 497.203125 C 516.390625 497.375 516.023438 497.746094 515.726562 498.023438 C 515.429688 498.304688 515.1875 498.632812 515.1875 498.753906 C 515.1875 498.875 514.917969 499.296875 514.589844 499.6875 C 514.257812 500.078125 513.988281 500.535156 513.988281 500.699219 C 513.988281 500.863281 513.71875 501.253906 513.390625 501.5625 C 513.042969 501.886719 512.789062 502.394531 512.789062 502.761719 C 512.789062 503.136719 512.546875 503.605469 512.191406 503.917969 C 511.753906 504.296875 511.589844 504.675781 511.589844 505.328125 C 511.589844 505.886719 511.367188 506.539062 510.980469 507.09375 L 510.371094 507.96875 L 510.441406 516.382812 C 510.507812 524.578125 510.523438 524.804688 511.023438 525.351562 C 511.359375 525.71875 511.570312 526.335938 511.648438 527.179688 C 511.726562 528.0625 511.917969 528.59375 512.277344 528.925781 C 512.558594 529.191406 512.789062 529.695312 512.789062 530.046875 C 512.789062 530.402344 512.996094 530.910156 513.253906 531.175781 C 513.507812 531.445312 515.238281 533.203125 517.101562 535.082031 C 519.800781 537.8125 520.617188 538.5 521.136719 538.5 C 521.519531 538.5 521.90625 538.691406 522.074219 538.957031 C 522.265625 539.265625 522.769531 539.46875 523.628906 539.582031 C 524.328125 539.675781 525.269531 539.976562 525.722656 540.25 C 526.5 540.722656 526.890625 540.75 533.636719 540.765625 C 540.503906 540.78125 540.757812 540.765625 541.453125 540.269531 C 541.847656 539.988281 542.730469 539.683594 543.414062 539.589844 C 544.160156 539.488281 544.816406 539.238281 545.070312 538.960938 C 545.296875 538.707031 545.75 538.5 546.074219 538.5 C 546.441406 538.5 547.019531 538.148438 547.601562 537.566406 L 548.539062 536.628906 L 548.382812 531.867188 C 548.292969 529.25 548.136719 526.9375 548.03125 526.726562 C 547.753906 526.191406 546.539062 526.417969 545.867188 527.132812 C 545.570312 527.449219 545.054688 527.707031 544.726562 527.707031 C 544.394531 527.707031 543.882812 527.933594 543.589844 528.207031 C 543.296875 528.484375 542.589844 528.8125 542.019531 528.941406 C 541.449219 529.070312 540.777344 529.355469 540.53125 529.582031 C 540.144531 529.929688 539.488281 529.988281 535.816406 529.988281 C 532.144531 529.988281 531.488281 529.929688 531.101562 529.582031 C 530.855469 529.359375 530.183594 529.070312 529.613281 528.941406 C 529.042969 528.8125 528.34375 528.496094 528.058594 528.238281 C 527.773438 527.980469 527.269531 527.703125 526.941406 527.617188 C 526.539062 527.511719 525.992188 526.90625 525.265625 525.757812 C 524.675781 524.820312 524.066406 524.003906 523.917969 523.945312 C 523.765625 523.886719 523.570312 523.402344 523.484375 522.863281 C 523.398438 522.328125 523.113281 521.617188 522.855469 521.285156 C 522.425781 520.738281 522.382812 520.300781 522.382812 516.25 C 522.382812 512.296875 522.433594 511.730469 522.84375 511.066406 C 523.097656 510.652344 523.378906 509.917969 523.46875 509.425781 C 523.558594 508.933594 523.839844 508.296875 524.089844 508.011719 C 524.339844 507.722656 524.542969 507.398438 524.542969 507.289062 C 524.542969 507.132812 526.554688 505.082031 528.421875 503.332031 C 528.640625 503.128906 529.285156 502.855469 529.855469 502.726562 C 530.425781 502.597656 531.09375 502.3125 531.339844 502.089844 C 531.71875 501.746094 532.449219 501.671875 535.964844 501.605469 C 540.027344 501.535156 540.175781 501.546875 541.441406 502.148438 C 542.15625 502.484375 542.898438 502.761719 543.085938 502.761719 C 543.273438 502.761719 543.703125 502.976562 544.039062 503.242188 C 544.371094 503.503906 544.761719 503.722656 544.902344 503.722656 C 545.039062 503.722656 545.507812 504.027344 545.941406 504.398438 C 546.917969 505.238281 547.808594 505.125 548.074219 504.128906 C 548.171875 503.765625 548.285156 501.316406 548.332031 498.683594 L 548.410156 493.898438 L 547.460938 493.113281 C 546.863281 492.613281 546.128906 492.269531 545.457031 492.164062 C 544.875 492.074219 544.167969 491.792969 543.882812 491.539062 C 543.46875 491.164062 542.703125 491.023438 539.773438 490.773438 C 533.816406 490.269531 533.300781 490.238281 533.179688 490.363281 M 351.851562 492.554688 C 351.632812 492.820312 351.5625 498.390625 351.566406 516 C 351.566406 528.707031 351.574219 539.234375 351.585938 539.394531 C 351.59375 539.554688 351.941406 539.863281 352.359375 540.082031 C 353.003906 540.414062 353.25 540.429688 354.027344 540.171875 C 354.75 539.933594 355.699219 539.929688 358.605469 540.152344 C 363.554688 540.53125 363.398438 540.535156 363.886719 539.9375 C 364.289062 539.4375 364.3125 538.132812 364.3125 516.683594 C 364.3125 501.253906 364.230469 493.722656 364.058594 493.226562 C 363.914062 492.808594 363.582031 492.4375 363.277344 492.355469 C 362.992188 492.277344 360.367188 492.210938 357.445312 492.210938 C 353.109375 492.207031 352.085938 492.269531 351.851562 492.554688 M 621.929688 500.964844 C 621.480469 501.292969 620.960938 501.5625 620.773438 501.5625 C 620.3125 501.5625 618.660156 503.292969 618.445312 503.996094 C 618.351562 504.308594 618.085938 504.777344 617.855469 505.039062 C 617.621094 505.304688 617.355469 505.84375 617.265625 506.238281 C 617.171875 506.636719 616.878906 507.191406 616.617188 507.472656 C 616.273438 507.84375 616.160156 508.242188 616.214844 508.910156 L 616.289062 509.839844 L 625.308594 509.839844 C 632.511719 509.839844 634.40625 509.773438 634.714844 509.515625 C 635.214844 509.101562 635.136719 506.976562 634.59375 506.121094 C 634.386719 505.789062 634.085938 505.117188 633.929688 504.621094 C 633.773438 504.125 633.554688 503.722656 633.441406 503.722656 C 633.332031 503.722656 633.003906 503.339844 632.71875 502.875 C 632.429688 502.410156 631.855469 501.859375 631.4375 501.644531 C 631.023438 501.433594 630.488281 501.058594 630.253906 500.8125 C 629.871094 500.414062 629.433594 500.363281 626.28125 500.363281 C 622.882812 500.363281 622.707031 500.386719 621.929688 500.964844 M 476.734375 501.539062 C 475.5625 501.640625 475.035156 501.796875 474.875 502.082031 C 474.75 502.300781 474.167969 502.714844 473.578125 503 C 472.171875 503.679688 470.09375 505.785156 470.09375 506.527344 C 470.09375 506.710938 469.839844 507.101562 469.53125 507.390625 C 469.175781 507.726562 468.917969 508.308594 468.828125 508.976562 C 468.753906 509.554688 468.464844 510.335938 468.191406 510.703125 C 467.734375 511.324219 467.695312 511.703125 467.695312 515.617188 C 467.695312 519.4375 467.742188 519.933594 468.175781 520.632812 C 468.4375 521.058594 468.722656 521.9375 468.804688 522.578125 C 468.890625 523.222656 469.148438 523.964844 469.378906 524.230469 C 469.609375 524.492188 469.875 524.980469 469.972656 525.308594 C 470.203125 526.105469 472.890625 528.613281 473.707031 528.789062 C 474.0625 528.867188 474.597656 529.195312 474.902344 529.519531 C 475.445312 530.097656 475.511719 530.105469 479.566406 530.105469 C 483.65625 530.105469 483.683594 530.101562 484.199219 529.507812 C 484.507812 529.152344 484.980469 528.90625 485.347656 528.90625 C 485.707031 528.90625 486.257812 528.625 486.644531 528.246094 C 487.15625 527.746094 487.667969 527.246094 488.179688 526.75 C 488.652344 526.285156 489.042969 525.679688 489.042969 525.402344 C 489.042969 525.125 489.3125 524.609375 489.644531 524.253906 C 490.03125 523.832031 490.242188 523.324219 490.242188 522.8125 C 490.242188 522.359375 490.5 521.636719 490.84375 521.132812 C 491.425781 520.277344 491.441406 520.132812 491.441406 516.097656 C 491.441406 512.191406 491.410156 511.902344 490.917969 511.277344 C 490.570312 510.835938 490.359375 510.160156 490.285156 509.265625 C 490.210938 508.3125 490.011719 507.71875 489.609375 507.242188 C 489.296875 506.867188 489.042969 506.402344 489.042969 506.203125 C 489.042969 506.007812 488.53125 505.304688 487.902344 504.640625 C 485.457031 502.054688 484.898438 501.761719 481.96875 501.535156 C 479.339844 501.332031 479.125 501.332031 476.734375 501.539062 M 193.648438 509.957031 L 191.25 510.078125 L 191.132812 512.90625 C 191.039062 515.0625 190.925781 515.789062 190.652344 515.960938 C 190.453125 516.085938 189.289062 516.1875 188.066406 516.191406 C 185.808594 516.195312 184.996094 516.441406 184.234375 517.363281 C 183.867188 517.808594 183.835938 520.867188 184.1875 521.878906 C 184.507812 522.796875 185.6875 523.1875 187.574219 522.988281 C 190.636719 522.671875 190.855469 523.101562 190.648438 529.027344 C 190.566406 531.402344 190.519531 535.535156 190.539062 538.214844 C 190.59375 544.421875 190.761719 544.128906 187.046875 544.367188 C 183.878906 544.574219 183.9375 544.507812 183.9375 547.964844 C 183.9375 551.230469 184.050781 551.335938 187.59375 551.335938 C 189.566406 551.335938 190.449219 551.425781 190.734375 551.664062 C 191.058594 551.933594 191.132812 552.464844 191.132812 554.578125 C 191.132812 556.503906 191.214844 557.191406 191.449219 557.28125 C 192.125 557.542969 197.425781 557.460938 197.757812 557.1875 C 198 556.984375 198.085938 556.234375 198.085938 554.3125 C 198.085938 551.214844 198.183594 551.105469 200.671875 551.261719 C 202.796875 551.398438 203.105469 551.785156 203.085938 554.3125 C 203.082031 555.34375 203.195312 556.414062 203.34375 556.691406 C 203.699219 557.355469 204.964844 557.570312 206.9375 557.304688 L 208.523438 557.089844 L 208.589844 554.585938 C 208.628906 553.210938 208.765625 551.953125 208.894531 551.796875 C 209.023438 551.644531 209.992188 551.464844 211.046875 551.40625 C 212.585938 551.316406 213.074219 551.191406 213.515625 550.773438 C 213.820312 550.488281 214.332031 550.253906 214.652344 550.253906 C 215.492188 550.253906 218.183594 547.691406 218.382812 546.710938 C 218.464844 546.300781 218.734375 545.777344 218.984375 545.554688 C 219.382812 545.191406 219.4375 544.777344 219.4375 542.078125 C 219.4375 538.976562 219.355469 538.582031 218.402344 537.054688 C 218.0625 536.507812 217.726562 535.953125 217.398438 535.398438 C 216.863281 534.496094 216.421875 534.03125 215.5 533.394531 C 214.757812 532.878906 214.6875 532.03125 215.34375 531.4375 C 215.601562 531.207031 215.882812 530.675781 215.96875 530.261719 C 216.058594 529.847656 216.347656 529.148438 216.613281 528.710938 C 217.277344 527.617188 217.148438 524.144531 216.394531 522.898438 C 216.121094 522.441406 215.824219 521.566406 215.734375 520.953125 C 215.644531 520.316406 215.425781 519.777344 215.226562 519.699219 C 215.035156 519.628906 214.878906 519.429688 214.878906 519.261719 C 214.878906 518.765625 213.015625 517.152344 212.441406 517.152344 C 212.152344 517.152344 211.234375 516.820312 210.398438 516.414062 L 208.882812 515.675781 L 208.882812 513.085938 C 208.882812 510.976562 208.808594 510.4375 208.488281 510.167969 C 207.941406 509.714844 203.390625 509.769531 203.097656 510.234375 C 202.984375 510.410156 202.890625 511.644531 202.890625 512.96875 C 202.882812 515.875 202.738281 516.136719 201.085938 516.207031 C 198.398438 516.316406 198.324219 516.226562 198.179688 512.757812 C 198.128906 511.425781 198.003906 510.265625 197.90625 510.179688 C 197.601562 509.90625 196.144531 509.832031 193.648438 509.957031 M 307.84375 511.535156 C 307.519531 511.859375 307.460938 512.886719 307.429688 518.789062 C 307.410156 522.574219 307.363281 526.28125 307.328125 527.03125 C 307.28125 527.949219 307.363281 528.484375 307.578125 528.660156 C 307.800781 528.847656 310.214844 528.90625 315.542969 528.855469 C 323.058594 528.789062 323.203125 528.777344 323.875 528.246094 C 324.253906 527.949219 324.828125 527.707031 325.15625 527.707031 C 325.851562 527.707031 327.449219 526.21875 327.734375 525.308594 C 327.835938 524.980469 328.121094 524.453125 328.367188 524.136719 C 328.746094 523.648438 328.8125 523.128906 328.8125 520.617188 C 328.8125 517.824219 328.78125 517.632812 328.214844 516.957031 C 327.882812 516.566406 327.613281 516.042969 327.613281 515.800781 C 327.613281 515.273438 326.207031 513.882812 324.855469 513.074219 C 323.714844 512.390625 322.132812 512.195312 315.980469 511.980469 C 313.324219 511.890625 311.269531 511.699219 310.636719 511.492188 C 309.289062 511.054688 308.308594 511.066406 307.84375 511.535156 M 198.671875 523.25 C 198.261719 523.550781 198.199219 523.953125 198.128906 526.621094 C 198.078125 528.546875 198.140625 529.761719 198.304688 529.960938 C 198.503906 530.199219 199.402344 530.246094 202.222656 530.15625 L 205.878906 530.039062 L 206.78125 529.292969 C 208 528.285156 208.359375 527.109375 207.898438 525.625 C 207.707031 525.015625 207.394531 524.445312 207.199219 524.355469 C 207.003906 524.269531 206.277344 523.90625 205.582031 523.554688 C 204.449219 522.972656 204.070312 522.910156 201.730469 522.910156 C 199.875 522.910156 199.007812 523.007812 198.671875 523.25 M 199.054688 537.296875 C 198.28125 537.484375 198.09375 538.386719 198.171875 541.5 C 198.253906 544.644531 198.054688 544.535156 203.726562 544.445312 L 208.042969 544.378906 L 209.0625 543.558594 C 209.621094 543.109375 210.082031 542.597656 210.082031 542.421875 C 210.082031 542.246094 210.296875 541.96875 210.5625 541.804688 C 211.21875 541.390625 211.175781 540.289062 210.464844 539.445312 C 210.148438 539.066406 209.847656 538.675781 209.804688 538.570312 C 209.757812 538.464844 209.417969 538.113281 209.046875 537.789062 C 208.386719 537.203125 208.300781 537.195312 204.011719 537.175781 C 201.609375 537.164062 199.378906 537.222656 199.054688 537.296875 " fill-opacity="1" fill-rule="evenodd"/></svg>