<svg xmlns="http://www.w3.org/2000/svg" xmlns:xlink="http://www.w3.org/1999/xlink" width="1080" zoomAndPan="magnify" viewBox="0 0 810 1012.49997" height="1350" preserveAspectRatio="xMidYMid meet" version="1.0"><path fill="#f8942a" d="M 272.78125 256.25 C 237.535156 256.335938 228.683594 256.40625 228.074219 256.601562 C 226.992188 256.953125 226.28125 257.34375 225.472656 258.035156 C 224.484375 258.875 223.679688 259.066406 220.5625 259.203125 C 217.609375 259.332031 217.078125 259.484375 216.425781 260.40625 C 215.914062 261.125 215.363281 261.402344 213.625 261.820312 C 212.386719 262.117188 212.175781 262.238281 211.542969 263.011719 C 211.0625 263.601562 210.472656 264.035156 209.679688 264.394531 C 208.929688 264.730469 208.304688 265.179688 207.914062 265.664062 C 207.472656 266.214844 206.882812 266.605469 205.714844 267.125 C 204.597656 267.625 203.972656 268.03125 203.621094 268.496094 C 203.308594 268.902344 202.675781 269.355469 201.957031 269.675781 C 201.03125 270.09375 200.707031 270.359375 200.355469 270.988281 C 200.113281 271.425781 199.453125 272.121094 198.890625 272.539062 C 198.308594 272.96875 197.699219 273.621094 197.480469 274.046875 C 197.269531 274.460938 196.777344 275.003906 196.390625 275.25 C 195.238281 275.980469 195.066406 276.289062 194.894531 277.917969 C 194.742188 279.371094 194.710938 279.445312 194.074219 279.839844 C 193.007812 280.503906 192.421875 281.191406 192.101562 282.148438 C 191.902344 282.75 191.523438 283.289062 190.949219 283.796875 C 190.140625 284.519531 190.070312 284.660156 189.558594 286.695312 C 189.09375 288.535156 188.921875 288.933594 188.335938 289.539062 C 187.15625 290.746094 186.796875 291.820312 186.769531 294.21875 C 186.738281 296.546875 186.460938 297.566406 185.574219 298.574219 C 184.695312 299.574219 184.421875 300.597656 184.261719 303.5 C 184.179688 304.957031 184.132812 407.953125 184.15625 532.375 C 184.199219 737.503906 184.230469 758.707031 184.5 759.78125 C 184.664062 760.429688 185.054688 761.304688 185.363281 761.71875 C 186.464844 763.195312 186.742188 764.03125 186.835938 766.144531 L 186.925781 768.105469 L 187.625 768.796875 C 188.011719 769.175781 188.527344 769.621094 188.769531 769.785156 C 189.15625 770.042969 189.238281 770.308594 189.371094 771.664062 C 189.539062 773.394531 189.824219 774 190.710938 774.476562 C 191.683594 775.003906 191.929688 775.351562 192.378906 776.863281 C 192.726562 778.039062 192.945312 778.433594 193.515625 778.925781 C 193.90625 779.257812 194.371094 779.871094 194.550781 780.285156 C 195.164062 781.703125 195.363281 781.988281 196.089844 782.492188 C 196.492188 782.765625 197.082031 783.363281 197.402344 783.816406 C 197.722656 784.269531 198.414062 784.882812 198.933594 785.179688 C 199.484375 785.496094 200.070312 786.03125 200.335938 786.457031 C 200.628906 786.929688 201.15625 787.386719 201.835938 787.75 C 202.410156 788.058594 203.191406 788.683594 203.574219 789.140625 C 204.167969 789.855469 204.449219 790.023438 205.5625 790.316406 C 207.207031 790.753906 207.84375 791.074219 207.992188 791.539062 C 208.054688 791.742188 208.398438 792.164062 208.753906 792.476562 C 209.246094 792.910156 209.648438 793.066406 210.496094 793.160156 C 212.46875 793.378906 212.628906 793.441406 213.144531 794.222656 C 214 795.515625 214.453125 795.675781 217.65625 795.828125 C 220.707031 795.972656 221.195312 796.105469 222.238281 797.09375 C 223.183594 797.988281 224.335938 798.199219 229.402344 798.382812 C 231.902344 798.472656 234.585938 798.640625 235.367188 798.75 C 236.148438 798.859375 238.40625 798.984375 240.386719 799.027344 C 242.367188 799.070312 246.996094 799.199219 250.671875 799.3125 C 254.351562 799.429688 257.425781 799.480469 257.511719 799.429688 C 257.773438 799.265625 268.003906 799.269531 273.0625 799.433594 C 278.695312 799.613281 280.992188 799.617188 297.121094 799.449219 C 303.734375 799.382812 310.3125 799.246094 311.738281 799.144531 C 313.390625 799.023438 315.273438 799.023438 316.945312 799.136719 C 319.652344 799.320312 320.210938 799.296875 323.261719 798.84375 C 324.25 798.695312 326.789062 798.488281 328.902344 798.378906 C 332.992188 798.171875 333.628906 798.03125 334.4375 797.148438 C 335.144531 796.375 335.777344 796.121094 337.3125 795.980469 C 338.621094 795.859375 338.738281 795.808594 339.386719 795.101562 C 339.765625 794.6875 340.328125 794.09375 340.640625 793.78125 C 341.261719 793.160156 342.457031 791.96875 343.203125 791.226562 C 344.128906 790.304688 345.054688 789.382812 345.980469 788.457031 C 346.199219 788.234375 346.71875 787.742188 347.128906 787.371094 L 347.871094 786.6875 L 347.867188 784.339844 C 347.859375 781.03125 348.148438 779.742188 349.125 778.671875 C 350.171875 777.527344 350.527344 773.75 349.765625 771.8125 C 349.550781 771.261719 349.203125 770.628906 348.996094 770.410156 C 348.453125 769.828125 348.144531 768.617188 347.984375 766.457031 C 347.824219 764.296875 347.636719 763.820312 346.554688 762.894531 C 345.941406 762.371094 345.675781 761.925781 345.261719 760.746094 C 344.785156 759.386719 344.644531 759.1875 343.660156 758.441406 C 343.070312 757.988281 342.535156 757.421875 342.472656 757.179688 C 342.253906 756.300781 341.429688 755.773438 339.761719 755.4375 C 338.328125 755.152344 338.144531 755.0625 337.605469 754.390625 C 337.277344 753.984375 336.710938 753.464844 336.339844 753.234375 L 335.667969 752.816406 L 287.933594 752.789062 C 259.113281 752.773438 239.972656 752.695312 239.628906 752.589844 C 239.289062 752.484375 238.847656 752.09375 238.53125 751.625 C 238.148438 751.054688 237.671875 750.679688 236.804688 750.265625 C 236.011719 749.890625 235.367188 749.40625 234.902344 748.839844 C 234.515625 748.367188 233.929688 747.84375 233.601562 747.675781 C 233.269531 747.511719 232.355469 746.707031 231.570312 745.890625 C 230.425781 744.707031 230.074219 744.199219 229.804688 743.351562 C 229.59375 742.679688 229.164062 741.945312 228.640625 741.355469 C 228.183594 740.839844 227.699219 740.097656 227.5625 739.703125 C 227.363281 739.117188 227.308594 701.21875 227.261719 529.671875 C 227.234375 414.550781 227.261719 320.074219 227.324219 319.726562 C 227.386719 319.375 227.753906 318.742188 228.15625 318.304688 C 229.113281 317.253906 229.226562 317.003906 229.574219 315.179688 C 229.925781 313.3125 230.035156 313.09375 230.988281 312.277344 C 231.472656 311.859375 231.898438 311.222656 232.238281 310.414062 C 233.050781 308.464844 233.457031 308.042969 234.839844 307.699219 C 235.496094 307.535156 236.273438 307.347656 236.574219 307.289062 C 236.890625 307.222656 237.53125 306.738281 238.125 306.113281 L 239.136719 305.050781 L 240.898438 304.882812 C 242.953125 304.683594 517.515625 304.527344 537.027344 304.714844 C 551.207031 304.851562 550.589844 304.796875 552.011719 306.046875 C 552.398438 306.386719 553.183594 306.761719 554.027344 307 C 556.035156 307.578125 556.203125 307.671875 556.609375 308.464844 C 557.027344 309.28125 557.609375 309.859375 558.433594 310.277344 C 559.589844 310.863281 559.800781 311.292969 559.910156 313.253906 C 560.027344 315.371094 560.433594 316.65625 561.210938 317.375 C 561.519531 317.660156 561.945312 318.222656 562.152344 318.625 C 562.53125 319.351562 562.53125 319.734375 562.511719 529.265625 C 562.5 647.605469 562.417969 739.550781 562.328125 740.03125 C 562.203125 740.675781 561.976562 741.046875 561.410156 741.546875 C 560.332031 742.5 560.097656 742.972656 559.867188 744.644531 C 559.753906 745.460938 559.621094 746.199219 559.570312 746.28125 C 559.515625 746.367188 559.019531 746.691406 558.460938 747.007812 C 557.902344 747.324219 557.070312 748.003906 556.613281 748.519531 C 555.695312 749.554688 555.011719 749.96875 553.878906 750.175781 C 552.75 750.378906 551.871094 750.890625 551.191406 751.742188 C 550.640625 752.421875 550.460938 752.519531 549.484375 752.644531 C 548.886719 752.722656 528.875 752.792969 505.015625 752.800781 L 461.636719 752.816406 L 460.730469 753.238281 C 460.234375 753.472656 459.550781 753.960938 459.214844 754.328125 C 458.753906 754.832031 458.292969 755.082031 457.320312 755.347656 C 455.886719 755.746094 455.417969 756.089844 454.890625 757.125 C 454.691406 757.511719 454.296875 757.972656 454.011719 758.148438 C 453.726562 758.324219 453.019531 758.941406 452.441406 759.523438 C 451.863281 760.105469 451.152344 760.742188 450.867188 760.933594 C 450.203125 761.375 449.847656 762.179688 449.695312 763.597656 C 449.585938 764.597656 449.476562 764.816406 448.667969 765.679688 C 448.171875 766.210938 447.652344 766.859375 447.511719 767.117188 C 447.3125 767.484375 447.238281 769.152344 447.179688 774.363281 C 447.085938 782.570312 447.179688 783.210938 448.664062 784.703125 C 449.589844 785.632812 449.730469 785.953125 450.175781 788.195312 C 450.359375 789.121094 450.507812 789.378906 451.15625 789.898438 C 451.578125 790.238281 452.09375 790.851562 452.300781 791.269531 C 452.832031 792.328125 453.53125 793.023438 454.328125 793.28125 C 454.703125 793.402344 455.4375 793.902344 455.964844 794.394531 C 456.816406 795.195312 457.101562 795.335938 458.582031 795.683594 C 460.316406 796.09375 461.023438 796.441406 461.601562 797.171875 C 462.113281 797.824219 464.117188 798.375 465.972656 798.375 C 466.824219 798.375 468.199219 798.453125 469.03125 798.550781 C 469.859375 798.648438 475.269531 798.824219 481.054688 798.9375 C 486.835938 799.054688 492.171875 799.226562 492.914062 799.324219 C 493.84375 799.445312 494.457031 799.433594 494.902344 799.285156 C 495.335938 799.144531 499.1875 799.046875 506.71875 798.984375 C 522.402344 798.863281 531.664062 798.835938 534.753906 798.90625 C 538.886719 799 562.164062 798.59375 564.5 798.390625 C 566.8125 798.1875 568.160156 797.8125 569.089844 797.113281 C 570.109375 796.34375 571.011719 796.070312 573.007812 795.925781 C 575.148438 795.773438 576.027344 795.445312 576.953125 794.464844 C 577.539062 793.84375 578.195312 793.535156 579.933594 793.066406 C 580.546875 792.902344 581.054688 792.558594 581.75 791.847656 C 582.613281 790.957031 582.855469 790.816406 584.117188 790.515625 C 585.65625 790.144531 586.011719 789.917969 586.683594 788.855469 C 586.964844 788.417969 587.464844 787.988281 587.992188 787.742188 C 588.539062 787.484375 589.058594 787.035156 589.421875 786.507812 C 589.734375 786.054688 590.320312 785.511719 590.722656 785.308594 C 591.121094 785.105469 591.648438 784.671875 591.894531 784.34375 C 592.460938 783.589844 593.183594 782.867188 593.941406 782.300781 C 594.265625 782.054688 594.734375 781.457031 594.980469 780.972656 C 595.277344 780.398438 595.667969 779.96875 596.125 779.726562 C 597.066406 779.226562 597.441406 778.613281 597.699219 777.171875 C 597.894531 776.082031 598.015625 775.859375 598.828125 775.082031 C 599.808594 774.152344 600.039062 773.695312 600.382812 772 C 600.558594 771.152344 600.753906 770.777344 601.277344 770.292969 C 602.277344 769.375 602.847656 768.027344 602.851562 766.589844 C 602.855469 765.140625 603.207031 764.238281 603.933594 763.808594 C 604.234375 763.628906 604.6875 763.183594 604.941406 762.816406 C 605.386719 762.164062 605.402344 762.015625 605.523438 757.292969 C 605.628906 753.03125 605.707031 752.164062 606.144531 750.195312 C 606.691406 747.742188 606.835938 743.960938 606.433594 742.679688 C 606.199219 741.929688 605.996094 669.09375 606.113281 626.566406 C 606.136719 618.175781 606.140625 593.671875 606.121094 572.105469 C 606.101562 550.539062 606.085938 517.59375 606.089844 498.890625 C 606.09375 480.191406 606.074219 453.679688 606.046875 439.980469 C 606.023438 426.28125 606.019531 405.863281 606.042969 394.613281 C 606.105469 363.574219 605.914062 315.453125 605.695312 308.425781 C 605.589844 304.984375 605.476562 300.9375 605.4375 299.425781 C 605.359375 296.199219 605.140625 295.433594 603.902344 294.109375 C 602.957031 293.097656 602.914062 292.964844 602.78125 290.710938 C 602.648438 288.378906 602.269531 287.144531 601.46875 286.453125 C 600.714844 285.796875 600.476562 285.382812 600.070312 284.019531 C 599.671875 282.667969 599.164062 281.726562 598.597656 281.28125 C 598.335938 281.074219 597.871094 280.34375 597.5625 279.65625 C 597.09375 278.621094 596.847656 278.3125 596.085938 277.847656 C 595.449219 277.453125 595.046875 277.027344 594.761719 276.4375 C 594.535156 275.972656 594.003906 275.316406 593.582031 274.976562 C 593.15625 274.636719 592.558594 273.960938 592.25 273.480469 C 591.9375 272.996094 591.359375 272.417969 590.964844 272.195312 C 590.566406 271.972656 589.964844 271.445312 589.625 271.023438 C 589.285156 270.597656 588.664062 270.078125 588.242188 269.863281 C 587.824219 269.648438 587.335938 269.214844 587.164062 268.898438 C 586.585938 267.847656 586.226562 267.496094 585.199219 266.976562 C 584.636719 266.691406 584.039062 266.226562 583.871094 265.9375 C 583.339844 265.042969 582.90625 264.789062 581.539062 264.574219 C 579.664062 264.28125 579.648438 264.273438 578.910156 263.246094 C 578.113281 262.136719 577.558594 261.824219 576.070312 261.644531 C 574.925781 261.503906 574.601562 261.285156 573.796875 260.121094 C 573.222656 259.285156 571.976562 258.839844 570.585938 258.972656 C 569.125 259.113281 567.769531 258.738281 566.746094 257.917969 C 565.625 257.019531 564.53125 256.628906 562.53125 256.414062 C 560.460938 256.195312 345.933594 256.070312 272.777344 256.25 M 267.855469 339.527344 C 265.859375 339.601562 265.550781 339.6875 265.171875 340.269531 C 264.875 340.71875 264.847656 343.164062 264.78125 373.367188 C 264.667969 426.085938 264.714844 708.707031 264.835938 709.027344 C 264.898438 709.1875 265.167969 709.464844 265.433594 709.636719 C 265.882812 709.933594 268.769531 709.957031 304.960938 709.96875 C 326.433594 709.972656 344.546875 709.910156 345.207031 709.828125 C 346.113281 709.71875 346.554688 709.554688 346.984375 709.167969 C 347.539062 708.671875 347.546875 708.644531 347.261719 708.085938 C 347.097656 707.773438 346.824219 707.398438 346.652344 707.257812 C 346.480469 707.113281 346.082031 706.625 345.769531 706.167969 C 345.453125 705.710938 344.738281 705.042969 344.175781 704.683594 C 343.523438 704.265625 343.019531 703.761719 342.78125 703.296875 C 342.574219 702.894531 342.136719 702.363281 341.8125 702.117188 C 341.011719 701.519531 340.101562 700.609375 339.683594 699.992188 C 339.496094 699.714844 338.925781 699.277344 338.417969 699.023438 C 337.804688 698.710938 337.359375 698.3125 337.089844 697.832031 C 336.867188 697.433594 336.3125 696.882812 335.859375 696.609375 C 335.292969 696.265625 334.898438 695.828125 334.585938 695.199219 C 334.238281 694.496094 333.914062 694.167969 333.195312 693.777344 C 332.65625 693.488281 332.011719 692.921875 331.679688 692.453125 C 331.359375 692 330.78125 691.421875 330.390625 691.167969 C 330.003906 690.914062 329.460938 690.292969 329.1875 689.792969 C 328.851562 689.175781 328.394531 688.695312 327.78125 688.320312 C 327.214844 687.96875 326.734375 687.484375 326.496094 687.019531 C 326.144531 686.332031 325.664062 685.851562 324.53125 685.058594 C 324.207031 684.835938 323.921875 684.261719 323.570312 683.132812 C 323.148438 681.777344 322.957031 681.4375 322.339844 680.949219 C 321.8125 680.53125 321.496094 680.054688 321.191406 679.21875 C 320.84375 678.265625 320.609375 677.953125 319.832031 677.394531 C 318.699219 676.578125 318.601562 676.410156 318.425781 674.960938 C 318.246094 673.492188 317.925781 672.890625 317.019531 672.316406 C 315.9375 671.632812 315.683594 671.167969 315.683594 669.867188 C 315.683594 668.472656 315.148438 667.269531 314.285156 666.738281 C 313.476562 666.238281 313.273438 665.769531 313.140625 664.105469 C 313.003906 662.429688 312.726562 661.851562 311.640625 660.957031 C 310.675781 660.167969 310.632812 660.007812 310.386719 656.492188 C 310.152344 653.117188 309.921875 652.324219 308.839844 651.082031 C 307.78125 649.878906 307.78125 649.863281 307.644531 645.695312 C 307.519531 641.832031 307.378906 641.113281 306.316406 638.972656 C 305.742188 637.816406 305.398438 636.808594 305.242188 635.847656 C 305.074219 634.816406 305.011719 629.921875 305.003906 618.039062 C 304.992188 599.769531 304.957031 600.292969 306.300781 597.890625 C 307.242188 596.207031 307.527344 594.75 307.644531 591.046875 C 307.78125 586.648438 307.960938 585.800781 308.972656 584.773438 C 309.984375 583.75 310.375 582.609375 310.394531 580.640625 C 310.40625 579.800781 310.476562 578.613281 310.550781 578.003906 C 310.675781 576.988281 310.765625 576.824219 311.574219 576.109375 C 312.0625 575.675781 312.582031 575.027344 312.726562 574.660156 C 312.875 574.296875 313.054688 572.976562 313.132812 571.726562 C 313.207031 570.476562 313.339844 569.273438 313.421875 569.050781 C 313.503906 568.828125 313.875 568.460938 314.242188 568.234375 C 315.261719 567.605469 315.632812 566.835938 315.789062 565.042969 C 315.933594 563.367188 315.929688 563.378906 317.484375 562.285156 C 318.125 561.835938 318.476562 561.015625 318.628906 559.625 C 318.742188 558.585938 318.816406 558.445312 319.828125 557.449219 C 320.757812 556.53125 320.953125 556.207031 321.25 555.109375 C 321.5 554.195312 321.808594 553.59375 322.339844 552.988281 C 322.75 552.519531 323.335938 551.589844 323.640625 550.921875 C 324.078125 549.953125 324.367188 549.59375 325.046875 549.164062 C 325.988281 548.566406 326.316406 548.03125 326.769531 546.371094 C 326.992188 545.554688 327.253906 545.09375 327.769531 544.621094 C 328.15625 544.269531 328.726562 543.453125 329.039062 542.808594 C 329.453125 541.957031 329.839844 541.476562 330.460938 541.046875 C 331.011719 540.664062 331.464844 540.136719 331.746094 539.554688 C 332.019531 538.984375 332.488281 538.433594 333.007812 538.066406 C 333.480469 537.734375 334.050781 537.089844 334.339844 536.5625 C 334.613281 536.054688 335.183594 535.363281 335.605469 535.023438 C 336.027344 534.683594 336.496094 534.164062 336.652344 533.867188 C 336.804688 533.566406 337.414062 532.785156 338.003906 532.128906 C 338.996094 531.023438 339.984375 529.917969 340.972656 528.804688 C 344.125 525.257812 344.277344 525.121094 345.578125 524.648438 C 346.5 524.316406 346.933594 524.019531 347.46875 523.367188 C 347.851562 522.902344 348.511719 522.367188 348.941406 522.183594 C 349.367188 522.003906 349.925781 521.578125 350.175781 521.246094 C 350.863281 520.335938 351.550781 519.675781 352.25 519.253906 C 352.597656 519.046875 353.144531 518.496094 353.46875 518.035156 C 353.882812 517.445312 354.417969 517.011719 355.273438 516.574219 C 355.941406 516.234375 356.761719 515.65625 357.09375 515.292969 C 357.527344 514.820312 358.011719 514.550781 358.804688 514.335938 C 360.480469 513.878906 361.097656 513.5 361.625 512.601562 C 362.074219 511.832031 362.207031 511.75 363.753906 511.265625 C 365.070312 510.855469 365.566406 510.59375 366.195312 509.976562 C 366.839844 509.339844 367.292969 509.105469 368.730469 508.675781 C 370.261719 508.21875 370.597656 508.035156 371.421875 507.21875 C 372.378906 506.265625 372.597656 506.171875 374.949219 505.703125 C 376.035156 505.484375 376.253906 505.355469 377.164062 504.410156 L 378.175781 503.359375 L 379.9375 503.25 C 381.90625 503.132812 382.230469 503.003906 383.125 501.976562 C 383.464844 501.582031 383.859375 501.191406 383.996094 501.109375 C 384.132812 501.03125 385.511719 500.886719 387.0625 500.792969 C 390.148438 500.609375 390.742188 500.441406 391.972656 499.410156 C 393.226562 498.355469 393.996094 498.171875 397.542969 498.066406 C 400.28125 497.984375 400.878906 497.910156 402.085938 497.488281 C 402.847656 497.222656 403.6875 496.847656 403.953125 496.652344 C 405.023438 495.859375 405.589844 495.710938 408.3125 495.5 C 413.082031 495.132812 427.902344 494.890625 432.871094 495.097656 C 435.355469 495.203125 439.90625 495.320312 442.976562 495.359375 C 448.960938 495.441406 449.113281 495.464844 450.625 496.492188 C 451.984375 497.417969 453.691406 497.703125 459.175781 497.925781 C 463.457031 498.101562 464.082031 498.238281 464.953125 499.183594 C 465.691406 499.988281 466.761719 500.363281 468.742188 500.507812 C 470.738281 500.652344 471.824219 501.03125 472.863281 501.9375 C 473.789062 502.753906 474.855469 503.171875 476.410156 503.324219 C 478.109375 503.492188 478.597656 503.691406 479.066406 504.398438 C 479.679688 505.332031 480.460938 505.695312 482.242188 505.875 C 483.964844 506.050781 484.734375 506.414062 485.195312 507.273438 C 485.515625 507.875 486.21875 508.261719 487.492188 508.542969 C 489.152344 508.90625 489.5625 509.125 490.132812 509.957031 C 490.734375 510.828125 491.0625 511.027344 492.703125 511.507812 C 493.425781 511.722656 494.046875 512.054688 494.40625 512.429688 C 495.183594 513.226562 495.949219 513.726562 496.988281 514.113281 C 497.570312 514.328125 498.117188 514.738281 498.617188 515.332031 C 499.246094 516.074219 499.605469 516.300781 500.742188 516.683594 C 501.898438 517.074219 502.238281 517.292969 502.929688 518.105469 C 503.382812 518.632812 504.164062 519.304688 504.667969 519.597656 C 505.171875 519.894531 505.816406 520.460938 506.105469 520.859375 C 506.390625 521.261719 506.992188 521.820312 507.445312 522.105469 C 507.9375 522.417969 508.441406 522.953125 508.703125 523.449219 C 508.984375 523.984375 509.457031 524.46875 510.039062 524.828125 C 510.601562 525.175781 511.105469 525.683594 511.386719 526.199219 C 511.652344 526.683594 512.191406 527.25 512.703125 527.578125 C 513.175781 527.882812 513.816406 528.523438 514.121094 528.996094 C 514.53125 529.636719 514.953125 529.992188 515.738281 530.367188 C 516.464844 530.714844 516.925781 531.085938 517.195312 531.546875 C 517.414062 531.914062 518.023438 532.527344 518.550781 532.90625 C 519.585938 533.648438 519.628906 533.753906 519.757812 535.710938 C 519.871094 537.398438 520.171875 537.785156 522.160156 538.789062 C 523.976562 539.707031 523.941406 539.71875 524.613281 537.960938 C 524.992188 536.972656 524.992188 536.5625 525.023438 439.074219 C 525.046875 348.34375 525.027344 341.132812 524.738281 340.574219 C 524.566406 340.238281 524.234375 339.84375 524 339.695312 C 523.636719 339.460938 506.402344 339.429688 396.472656 339.449219 C 326.566406 339.460938 268.6875 339.496094 267.855469 339.527344 M 321.082031 390.683594 C 319.699219 390.804688 319.234375 390.980469 318.429688 391.675781 C 317.824219 392.203125 317.167969 392.535156 316.203125 392.816406 C 313.988281 393.453125 313.808594 393.5625 313.121094 394.636719 C 312.765625 395.191406 312.109375 395.90625 311.664062 396.230469 C 310.628906 396.980469 310.441406 397.351562 310.277344 398.953125 C 310.148438 400.25 310.136719 400.273438 308.964844 401.417969 L 307.785156 402.574219 L 307.652344 403.992188 C 307.574219 404.773438 307.382812 406.050781 307.222656 406.832031 C 306.921875 408.300781 306.933594 409.066406 307.332031 413.933594 C 307.605469 417.269531 307.878906 418.660156 308.410156 419.386719 C 309.394531 420.734375 309.761719 421.371094 310.183594 422.457031 C 310.984375 424.507812 311.199219 424.742188 313.238281 425.789062 C 314.269531 426.320312 315.117188 426.828125 315.117188 426.917969 C 315.117188 427.007812 315.492188 427.304688 315.953125 427.574219 L 316.792969 428.066406 L 341.382812 428.050781 C 354.910156 428.042969 368.054688 428.035156 370.59375 428.039062 C 376.5625 428.042969 378.308594 427.792969 379.3125 426.789062 C 379.996094 426.109375 380.550781 425.855469 382.355469 425.40625 C 383.699219 425.074219 384.066406 424.890625 384.828125 424.179688 C 385.320312 423.71875 386.136719 423.128906 386.644531 422.867188 C 387.15625 422.609375 387.671875 422.226562 387.796875 422.019531 C 387.921875 421.8125 388.078125 420.972656 388.144531 420.15625 C 388.289062 418.28125 388.640625 417.296875 389.558594 416.1875 C 389.957031 415.703125 390.375 414.953125 390.480469 414.523438 C 390.589844 414.09375 390.691406 411.609375 390.707031 409.007812 C 390.738281 403.53125 390.621094 402.75 389.632812 401.996094 C 388.828125 401.382812 388.234375 400.246094 388.230469 399.308594 C 388.230469 398.914062 388.175781 398.265625 388.109375 397.867188 C 388 397.191406 387.898438 397.101562 386.523438 396.40625 C 385.714844 396 384.546875 395.203125 383.933594 394.632812 C 383.316406 394.0625 382.3125 393.375 381.6875 393.101562 C 381.066406 392.828125 380.15625 392.207031 379.65625 391.714844 L 378.75 390.824219 L 366.492188 390.777344 C 339.75 390.671875 321.625 390.636719 321.082031 390.683594 M 390.476562 530.40625 C 389.886719 530.523438 389.238281 530.773438 389.03125 530.960938 C 388.328125 531.601562 388.199219 533.664062 388.261719 543.410156 C 388.3125 551.707031 388.289062 552.480469 387.988281 552.941406 C 387.292969 554.003906 387.558594 553.972656 377.34375 554.117188 C 370.042969 554.21875 367.757812 554.304688 367.378906 554.5 C 366.765625 554.8125 366.351562 555.429688 366.171875 556.289062 C 366.097656 556.652344 365.816406 557.273438 365.550781 557.667969 C 365.269531 558.082031 364.957031 558.945312 364.8125 559.707031 C 364.589844 560.882812 364.605469 561.351562 364.953125 563.914062 C 365.191406 565.699219 365.296875 567.21875 365.226562 567.894531 C 365.121094 568.917969 365.152344 569.035156 365.714844 569.738281 C 366.078125 570.1875 366.597656 571.296875 367.015625 572.519531 C 367.710938 574.550781 367.710938 574.554688 368.628906 575.011719 C 370.007812 575.699219 372.074219 575.851562 378.71875 575.75 L 384.636719 575.65625 L 385.496094 576.199219 C 385.964844 576.5 386.402344 576.875 386.460938 577.03125 C 386.523438 577.1875 386.476562 577.847656 386.363281 578.5 C 385.90625 581.105469 385.75 590.265625 385.664062 619.175781 C 385.605469 639.617188 385.507812 649.902344 385.367188 650.976562 C 385.199219 652.242188 385.058594 652.671875 384.660156 653.121094 L 384.160156 653.679688 L 376.015625 653.769531 C 369.34375 653.84375 367.796875 653.910156 367.453125 654.136719 C 367.222656 654.285156 366.886719 654.855469 366.703125 655.402344 C 366.421875 656.25 366.371094 657.222656 366.351562 661.988281 C 366.339844 665.472656 366.238281 668.210938 366.085938 669.261719 C 365.75 671.554688 366.046875 673.457031 366.867188 674.242188 C 367.375 674.726562 367.585938 674.785156 369.351562 674.914062 C 370.414062 674.988281 373.839844 675.09375 376.964844 675.144531 C 380.089844 675.195312 383.59375 675.292969 384.753906 675.355469 C 387.472656 675.503906 387.832031 675.707031 388.742188 677.621094 C 389.398438 679 389.410156 679.066406 389.210938 680.21875 C 389.101562 680.871094 388.960938 682.660156 388.902344 684.195312 C 388.839844 685.734375 388.6875 687.480469 388.566406 688.078125 C 388.441406 688.679688 388.347656 690.574219 388.355469 692.296875 C 388.367188 695.117188 388.410156 695.515625 388.800781 696.425781 C 389.332031 697.652344 389.992188 698.039062 392.484375 698.59375 C 393.980469 698.925781 395.101562 698.984375 401.226562 699.0625 C 408.019531 699.148438 408.28125 699.140625 408.996094 698.765625 C 409.976562 698.253906 411.699219 696.5625 412.019531 695.796875 C 412.226562 695.300781 412.253906 693.664062 412.160156 687.15625 C 412.097656 682.742188 412.109375 678.453125 412.1875 677.628906 C 412.308594 676.332031 412.402344 676.050781 412.863281 675.589844 L 413.398438 675.058594 L 418.820312 675.058594 C 424.460938 675.058594 424.886719 675.109375 425.542969 675.898438 C 425.742188 676.140625 425.785156 678.0625 425.757812 685.460938 C 425.71875 695.246094 425.746094 695.570312 426.59375 696.273438 C 426.976562 696.589844 430.03125 696.738281 433.886719 696.628906 C 436.851562 696.542969 438.144531 696.566406 440.757812 696.746094 C 442.949219 696.894531 442.996094 696.890625 443.476562 696.445312 C 444.621094 695.371094 444.585938 695.71875 444.613281 685.414062 L 444.636719 675.976562 L 445.167969 675.421875 L 445.703125 674.867188 L 448.429688 674.867188 C 451.488281 674.867188 452.011719 674.722656 453.164062 673.570312 C 453.984375 672.75 455.289062 672.414062 457.640625 672.410156 C 459.800781 672.40625 461.082031 672.007812 462.304688 670.960938 C 462.910156 670.445312 463.632812 670.046875 464.335938 669.84375 C 465.222656 669.585938 465.625 669.320312 466.484375 668.425781 C 467.28125 667.59375 467.75 667.269531 468.378906 667.109375 C 470.226562 666.644531 470.496094 666.472656 471.136719 665.378906 C 471.492188 664.765625 472.070312 664.113281 472.515625 663.816406 C 472.933594 663.539062 473.445312 662.988281 473.648438 662.589844 C 473.851562 662.191406 474.476562 661.472656 475.039062 660.992188 C 475.800781 660.34375 476.199219 659.808594 476.582031 658.921875 C 477.410156 657.011719 477.492188 656.878906 478.105469 656.5 C 478.960938 655.96875 479.285156 655.25 479.441406 653.558594 C 479.597656 651.832031 479.800781 651.351562 480.75 650.46875 C 482.035156 649.269531 482.242188 647.445312 482.101562 638.59375 C 482.039062 634.738281 481.941406 631.199219 481.890625 630.730469 C 481.714844 629.207031 481.277344 627.992188 480.703125 627.445312 C 479.929688 626.703125 479.578125 625.761719 479.4375 624.050781 C 479.300781 622.410156 478.890625 621.699219 477.824219 621.257812 C 477.433594 621.09375 477.089844 620.71875 476.78125 620.105469 C 476.527344 619.605469 475.972656 618.917969 475.542969 618.570312 C 475.113281 618.226562 474.605469 617.636719 474.414062 617.261719 C 474.222656 616.886719 473.753906 616.332031 473.371094 616.03125 C 472.992188 615.730469 472.238281 615.042969 471.703125 614.507812 C 470.621094 613.421875 470.289062 613.222656 469.28125 613.039062 C 468.871094 612.964844 468.242188 612.605469 467.710938 612.140625 C 467.222656 611.710938 466.214844 611.113281 465.46875 610.808594 C 463.945312 610.1875 463.4375 609.808594 463.4375 609.296875 C 463.4375 609.105469 463.992188 608.34375 464.667969 607.609375 C 465.34375 606.871094 465.898438 606.199219 465.898438 606.113281 C 465.898438 606.03125 466.375 605.722656 466.957031 605.425781 C 467.972656 604.910156 468.367188 604.507812 468.917969 603.414062 C 469.058594 603.128906 469.503906 602.683594 469.902344 602.417969 C 470.832031 601.804688 471.132812 601.308594 471.289062 600.140625 C 471.519531 598.441406 471.785156 597.75 472.515625 596.949219 C 472.910156 596.515625 473.320312 595.992188 473.425781 595.78125 C 473.71875 595.195312 474.015625 593.152344 474.132812 590.859375 C 474.246094 588.671875 474.609375 586.761719 475.085938 585.835938 C 475.53125 584.976562 475.449219 582.972656 474.90625 581.402344 C 474.308594 579.664062 474.046875 578.003906 474.046875 575.929688 C 474.042969 573.964844 473.8125 573.382812 472.613281 572.292969 C 471.828125 571.582031 471.765625 571.449219 471.582031 570.148438 C 471.367188 568.59375 471.050781 568.050781 470.019531 567.464844 C 469.621094 567.238281 469.089844 566.6875 468.808594 566.203125 C 468.519531 565.710938 467.957031 565.128906 467.480469 564.832031 C 467.027344 564.550781 466.40625 563.921875 466.097656 563.4375 C 465.757812 562.898438 465.246094 562.40625 464.78125 562.167969 C 464.363281 561.953125 463.761719 561.402344 463.4375 560.929688 C 462.882812 560.121094 462.046875 559.507812 461.503906 559.507812 C 460.8125 559.503906 459.730469 559.03125 459.089844 558.453125 C 458.097656 557.554688 456.960938 557.105469 455.292969 556.945312 C 453.621094 556.789062 453.347656 556.671875 452.382812 555.683594 C 451.984375 555.273438 451.464844 554.863281 451.226562 554.777344 C 450.992188 554.6875 449.660156 554.476562 448.261719 554.304688 C 445 553.910156 444.964844 553.878906 444.667969 551.265625 C 444.527344 550.046875 444.496094 548.050781 444.582031 545.640625 C 444.652344 543.585938 444.648438 539.546875 444.574219 536.660156 L 444.4375 531.414062 L 443.914062 530.828125 L 443.386719 530.242188 L 436.507812 530.195312 C 430.878906 530.15625 429.375 530.203125 428.265625 530.441406 C 425.949219 530.941406 425.949219 530.941406 425.859375 542.175781 C 425.769531 553.226562 425.773438 553.195312 423.164062 553.714844 C 422.445312 553.859375 419.960938 554.03125 417.640625 554.101562 L 413.421875 554.226562 L 412.882812 553.6875 C 412.398438 553.203125 412.335938 552.988281 412.234375 551.453125 C 412.171875 550.515625 412.117188 546.042969 412.113281 541.511719 C 412.109375 536.476562 412.03125 532.894531 411.90625 532.304688 C 411.644531 531.023438 411.167969 530.621094 409.625 530.359375 C 407.945312 530.074219 391.957031 530.113281 390.476562 530.40625 M 414.355469 575.9375 C 413.683594 575.988281 413.355469 576.140625 412.933594 576.578125 L 412.386719 577.148438 L 412.324219 587.695312 C 412.289062 593.5 412.316406 598.949219 412.386719 599.804688 C 412.5 601.183594 412.582031 601.4375 413.074219 601.96875 L 413.636719 602.566406 L 422.105469 602.445312 C 430.960938 602.316406 431.695312 602.246094 433.128906 601.417969 C 434.046875 600.886719 435.308594 600.503906 437.949219 599.957031 L 440.214844 599.484375 L 441.171875 598.457031 C 441.695312 597.894531 442.425781 597.304688 442.789062 597.152344 C 443.785156 596.738281 444.09375 596.265625 444.503906 594.5625 C 444.9375 592.746094 445.054688 592.496094 445.96875 591.484375 C 446.589844 590.796875 446.671875 590.582031 446.796875 589.273438 C 446.972656 587.457031 446.621094 585.9375 445.714844 584.605469 C 445.257812 583.933594 444.925781 583.078125 444.582031 581.671875 C 444.3125 580.578125 443.949219 579.539062 443.773438 579.367188 C 443.597656 579.195312 442.71875 578.742188 441.816406 578.363281 C 440.910156 577.976562 439.941406 577.414062 439.640625 577.09375 C 439.339844 576.777344 438.777344 576.359375 438.390625 576.160156 C 437.722656 575.816406 437.175781 575.800781 426.457031 575.832031 C 420.28125 575.851562 414.835938 575.898438 414.355469 575.9375 M 414.492188 624.011719 C 413.269531 624.257812 413.164062 624.328125 412.777344 625.144531 C 412.496094 625.738281 412.449219 626.921875 412.378906 635.328125 C 412.332031 640.5625 412.246094 645.851562 412.1875 647.085938 C 412.058594 649.722656 412.445312 652.027344 413.140625 652.78125 C 413.734375 653.417969 414.675781 653.464844 428.296875 653.515625 C 441.429688 653.5625 441.175781 653.585938 443.070312 652.230469 C 443.589844 651.859375 444.484375 651.417969 445.058594 651.25 C 446.425781 650.851562 446.867188 650.546875 447.375 649.644531 C 447.613281 649.214844 448.171875 648.667969 448.683594 648.351562 C 449.171875 648.050781 449.835938 647.421875 450.160156 646.949219 C 450.484375 646.476562 451 645.945312 451.304688 645.765625 C 452.199219 645.238281 452.414062 644.535156 452.636719 641.410156 C 452.785156 639.332031 452.78125 637.929688 452.628906 636.296875 C 452.335938 633.140625 452.222656 632.792969 451.210938 631.964844 C 450.703125 631.550781 450.132812 630.824219 449.8125 630.191406 C 449.214844 629.007812 447.75 627.519531 446.863281 627.191406 C 446.550781 627.078125 445.886719 626.839844 445.386719 626.660156 C 444.773438 626.441406 444.257812 626.070312 443.777344 625.496094 C 442.796875 624.324219 442.074219 624.164062 437.011719 623.988281 C 430.703125 623.769531 415.621094 623.785156 414.492188 624.011719 " fill-opacity="1" fill-rule="evenodd"/></svg>